<svg width="76" height="75" viewBox="0 0 76 75" fill="none" xmlns="http://www.w3.org/2000/svg">
<path d="M33.0406 38.2659C28.947 40.299 25.7618 41.8529 23.1481 43.0597M33.0406 38.2659V31.8962C33.0406 30.7071 31.8802 29.0424 27.2383 29.1783C22.5964 29.3142 23.1481 32.4057 23.1481 34.1044V43.0597M33.0406 38.2659C35.0112 37.2872 36.6778 36.5697 38.082 36.0659M26.1919 63.8297C33.8016 61.9612 49.5155 58.0885 51.8745 58.2244C54.2335 58.3603 56.9159 56.8655 57.9622 56.1011C60.9743 54.3742 68.0046 49.6827 72.801 45.4C76.6058 42.0027 70.6132 36.2275 65.1913 40.2193C64.9949 40.3639 64.4706 40.7622 63.6694 41.259M26.1919 63.8297L17.8214 44.8917M26.1919 63.8297C26.9529 65.9529 26.0968 70.1994 22.8627 71.1336C18.1566 72.493 15.0946 72.7756 14.2068 72.9171C12.4946 73.1901 8.97515 72.9171 7.73857 70.1145L2.88744 55.2517C2.09476 53.1851 1.91574 49.5947 7.64346 47.9478C13.2556 46.3341 15.8238 45.6547 23.1481 43.0597M38.082 36.0659C43.5039 34.1209 45.5965 37.3316 44.5502 38.8604C43.5356 40.6439 40.8405 43.7013 39.3186 45.4C38.0386 46.8286 38.5893 47.5231 39.3186 47.693C41.4112 47.693 45.5226 48.1857 48.5452 48.0571M38.082 36.0659V24.847C37.9552 23.1767 38.7859 19.9041 43.1234 20.1759C47.4609 20.4477 48.5452 22.7238 48.5452 23.8278V48.0571M48.5452 48.0571C49.1768 48.0302 49.7576 47.9686 50.2574 47.863C51.0977 47.6853 52.308 47.223 53.6818 46.6075M53.6818 46.6075V13.7212C53.4598 12.5888 53.891 10.2731 57.3915 10.0692C61.767 9.81445 63.5743 11.2583 63.6694 12.8719C63.7455 14.1628 63.7011 32.3345 63.6694 41.259M53.6818 46.6075C57.0419 45.1018 61.3795 42.6788 63.6694 41.259M2.69718 30.6222L21.1505 14.1459C22.1018 13.2116 23.814 12.2773 25.1456 12.8718C26.7932 13.6074 28.5066 14.4573 28.9505 14.6554C29.3627 14.8819 30.0919 15.165 31.2333 14.1459C32.3748 13.1267 37.0991 8.56881 39.3186 6.41726H36.2747C32.8504 6.58712 32.7553 2.00092 36.6552 2.00092C41.8297 2.00092 44.5185 2.00092 45.216 2.00092C46.6428 1.97261 48.5452 2.58713 48.5452 5.65289C48.5452 8.71027 48.5452 11.7677 48.5452 13.0417C48.5452 14.5704 44.4762 16.5233 43.8844 14.1458C43.3137 11.8527 43.1234 10.4089 43.1234 9.64459L33.0406 18.4773C32.1846 19.1566 30.8529 21.3648 27.9041 19.5814C25.7159 18.258 25.6213 18.2224 24.67 17.628L6.21662 33.6797C3.64843 36.0659 0.604535 32.4057 2.69718 30.6222ZM12.9702 66.3775C12.4368 65.5838 12.0053 62.8877 14.9677 62.0461C17.0604 61.4516 18.7963 62.8105 19.153 63.8297C19.6286 65.1885 19.3433 67.1419 17.4409 67.9063C15.5385 68.6706 13.8263 67.6515 12.9702 66.3775Z" stroke="white" stroke-width="2.5"/>
</svg>
