<svg width="90" height="65" viewBox="0 0 90 65" fill="none" xmlns="http://www.w3.org/2000/svg">
<path d="M11.7643 27.2698L10.3737 28.5997L2 20.3982L21.0105 2L29.6105 10.2016L28.2526 11.5003M11.7643 27.2698L15.5789 30.5947C16.5596 33.4764 18.8379 39.5943 20.1053 41.013C21.3137 42.3657 23.4079 44.9006 24.1789 45.8896M11.7643 27.2698L28.2526 11.5003M24.1789 45.8896C25.6762 45.0029 27.9584 45.2246 29.3842 47.2196C30.4355 48.6905 30.3649 50.4707 29.3842 51.6529M24.1789 45.8896C24.2165 45.9378 24.1474 45.8484 24.1789 45.8896ZM24.1789 45.8896C22.6817 46.7762 21.4029 49.6169 23.2737 51.6529C25.3105 53.8695 27.9132 53.4262 29.3842 51.6529M28.2526 11.5003L32.7789 15.9649C33.4579 16.9993 35.8568 18.7578 40.0211 17.5165C44.1853 16.2752 45.5281 16.8398 45 17.1353M64.6299 12.4182L62.4263 10.2016L70.8 2.44333L88 19.0682L79.1737 27.0481L78.0719 25.9398M64.6299 12.4182L60.3895 15.9649C59.4842 16.8515 56.8137 18.0928 53.3737 15.9649C49.9337 13.8369 45.4526 16.556 43.6421 18.1815L33.4579 27.7131C32.3263 29.1909 30.7421 32.634 33.4579 34.5847C36.1737 36.5353 39.2667 34.363 40.4737 33.033L44.5474 29.0431M64.6299 12.4182L78.0719 25.9398M46.5842 27.0481L44.5474 29.0431M78.0719 25.9398L73.2895 30.1514C71.9316 31.4814 69.5779 33.1217 70.1211 37.9097C70.3725 40.1263 65.3684 44.5596 63.3316 46.7762M63.3316 46.7762L49.1166 33.033M63.3316 46.7762C65.9199 49.3114 63.3316 54.0912 60.3895 52.4965M44.5474 29.0431C45.4208 30.1837 47.0421 31.8024 49.1166 33.033M56.9947 34.5847C54.0897 35.2272 51.3423 34.3534 49.1166 33.033M45.4526 39.018C45.4526 39.018 57.4474 50.1012 59.0316 51.6529C59.4942 52.0526 59.9502 52.3274 60.3895 52.4965M29.3842 51.6529C30.2895 50.7662 32.7789 50.5445 34.1368 51.8745C35.5802 53.2882 35.8283 55.4955 34.3632 56.7511M29.3842 51.6529C27.5737 53.4262 27.3474 55.4212 28.9316 56.9728C30.6327 58.639 33.0329 57.8912 34.3632 56.7511M34.3632 56.7511C35.6717 55.6297 38.2105 55.8645 39.3421 57.1945C40.1046 58.0906 40.422 59.6783 40.0211 60.9347M34.3632 56.7511C32.5526 58.3028 32.8759 60.9628 33.9105 61.8494C35.7211 63.4011 38.0967 63.2909 39.3421 62.0711C39.6607 61.7591 39.8833 61.3664 40.0211 60.9347M41.1526 43.4513L53.8446 56.0862M60.3895 52.4965C63.1053 56.3078 57.9 60.0761 54.9579 57.1945C54.0526 56.3078 53.8446 56.0862 53.8446 56.0862M35.2684 47.2196L46.8105 58.5245M53.8446 56.0862C55.4105 57.5746 51.5632 62.7361 48.1684 59.8545L46.8105 58.5245M46.8105 58.5245C45.34 60.6001 43.8684 62.5144 42.2842 62.0711L40.0211 60.9347M9.69474 21.7281C9.46842 21.5065 10.1474 21.2848 10.1474 21.5065C10.1474 21.7281 9.92105 21.9498 9.69474 21.7281ZM80.5316 19.9548C80.7579 19.9548 81.2105 20.0435 81.2105 20.3982C81.2105 20.8415 80.3053 20.3982 80.5316 19.9548Z" stroke="white" stroke-width="2.5"/>
</svg>
