<svg width="90" height="74" viewBox="0 0 90 74" fill="none" xmlns="http://www.w3.org/2000/svg">
<path d="M6.54 33.9501V50.1218M15.5113 68.0058C15.5113 74.6647 6.54 74.094 6.54 68.0058V50.1218M15.5113 68.0058C15.5113 58.5691 15.5113 54.4342 15.5113 53.5464M15.5113 68.0058C15.5113 74.6647 24.4827 74.6647 24.4827 68.0058V31.4768H33.2631L43.7615 23.8665M43.7615 23.8665C42.2345 23.5494 38.7223 22.4206 36.8899 20.4419M43.7615 23.8665C44.5274 23.9392 45.4466 23.8939 46.4338 23.7079M6.54 50.1218C4.6312 49.9315 0.851787 48.4856 1.00449 44.2239C1.15719 39.9621 1.06812 33.5696 1.00449 30.906C0.949954 28.6229 2.417 24.6276 6.54 24.6276C8.25489 24.6276 11.6583 24.6276 15.5113 24.6276M36.8899 20.4419L30.9726 24.6276C27.2192 24.6276 20.922 24.6276 15.5113 24.6276M36.8899 20.4419C34.9174 18.6662 31.6979 13.6308 34.5993 7.69482C37.5007 1.75885 44.0797 0.782205 47.0065 1.03588C50.1242 1.60665 56.3214 4.6127 56.1687 12.0707C56.0912 15.8548 54.6928 18.5731 52.7906 20.4419M15.5113 24.6276C12.839 24.6276 9.02144 23.1055 9.02144 17.9686C9.02144 13.5927 12.839 12.0707 15.5113 12.0707C18.1837 12.0707 21.8104 13.9185 21.8104 17.9686C21.8104 22.0187 19.1381 24.6276 15.5113 24.6276ZM39.5622 12.261L43.3798 16.0661L50.6332 8.83635M46.4338 23.7079L56.5505 31.0962H65.7127C65.7127 31.0962 65.7127 62.2981 65.7127 68.196C65.7127 74.094 74.684 73.9037 74.684 68.196M46.4338 23.7079C48.5163 23.3155 50.9018 22.2974 52.7906 20.4419M74.684 68.196V52.9756M74.684 68.196C74.668 73.9941 83.6554 74.2842 83.6554 68.196V49.7413M83.6554 33.9501V49.7413M52.7906 20.4419L58.6501 24.6276H74.8749M83.6554 49.7413C87.6257 49.589 88.8727 45.7459 89 43.8433C89 41.1163 89 34.5969 89 30.3352C89 26.0735 84.5461 24.7544 82.3192 24.6276H74.8749M74.8749 24.6276C71.8208 24.6276 68.385 22.725 68.385 18.1588C68.385 13.5927 72.5844 11.8804 74.8749 11.8804C77.5576 11.8804 81.1739 13.9732 81.1739 18.1588C81.1739 22.3517 77.929 24.6276 74.8749 24.6276ZM36.1263 45.3654L39.5622 43.2726C39.9439 42.9555 40.9365 42.6638 41.8527 44.0336C42.998 45.7459 46.8156 46.3167 47.77 44.7946C48.7244 43.2726 50.0606 42.8921 50.6332 43.0823C51.0913 43.2345 53.1146 44.6678 54.069 45.3654C54.4508 45.7459 55.0234 46.7733 54.2599 47.8387C53.3055 49.1705 54.2599 52.7853 57.1231 53.3561C59.4137 53.8127 59.6045 54.6879 59.4137 55.0684V58.493C59.6045 59.1272 59.4137 60.4336 57.1231 60.5858C54.2599 60.7761 53.1146 63.0591 54.2599 65.7227C55.1761 67.8536 54.3872 68.3863 53.8781 68.3863L51.015 69.9083C50.3787 70.3523 48.7129 70.8757 48.1518 69.3376C47.3882 67.2448 43.1889 65.913 41.471 69.9083C40.8165 71.4304 38.7987 69.7181 36.3172 68.3863C35.5537 67.9765 34.9811 67.435 35.5537 65.7227C36.1693 63.882 36.9051 60.015 32.1179 60.015C30.7817 60.015 30.7817 59.0638 30.7817 58.1125V54.6879C30.7181 54.3074 31.0489 53.4703 32.8814 53.1659C35.1719 52.7853 36.8899 49.551 36.1263 48.2192C35.3628 46.8874 35.3628 45.8304 36.1263 45.3654ZM40.1348 56.971C40.1348 55.2587 41.051 51.8341 44.7159 51.8341C49.297 51.8341 50.0606 55.2587 50.0606 56.971C50.0606 59.4443 48.1518 61.3468 44.7159 61.3468C41.9673 61.3468 40.1348 58.8735 40.1348 56.971Z" stroke="white" stroke-width="2"/>
</svg>
