<svg width="79" height="55" viewBox="0 0 79 55" fill="none" xmlns="http://www.w3.org/2000/svg">
<path d="M0.783088 8.06923H8.35294C11.2243 8.06923 14.7733 6.41263 16.4449 5.45649C20.0993 3.36617 23.4926 2.58248 27.6691 2.58248H36.0221M36.0221 2.58248C42.7044 -0.343791 48.5515 1.47717 51.4228 2.58248C54.8162 3.88885 60.8199 6.24018 63.4301 8.06923C65.0073 9.17438 76.5858 9 78.5 9M36.0221 2.58248C33.3248 4.15008 27.4603 8.90518 25.5809 15.3848C23.7015 21.8644 26.19 23.8326 27.6691 24.0068C29.2353 24.7035 32.5685 24.1226 36.0221 17.475C39.4154 10.9431 45.7672 14.6009 48.8125 17.475L64.9963 32.8901M64.9963 32.8901C68.3897 36.0254 65.3618 43.8114 60.5588 39.422M64.9963 32.8901C65.6054 33.6739 74.5765 35.6271 77.5 35M60.5588 39.422C55.7559 35.0326 52.989 32.5418 52.2059 31.845M60.5588 39.422C63.9895 42.5573 61.4985 51.4928 55.8603 46.4764M55.8603 46.4764C58.2096 48.5666 52.5713 54.9416 48.8125 51.1793L45.6801 48.044M55.8603 46.4764L48.8125 39.9445M44.114 46.4764L45.6801 48.044M45.6801 48.044C44.723 50.7438 42.371 55.227 39.4154 53.0082C36.2831 50.6568 35.761 49.96 35.761 50.1342M35.761 50.1342C40.4596 44.1249 31.689 39.1084 28.9743 44.1249M35.761 50.1342C32.3676 54.0533 30.0184 54.5759 28.4522 53.5308C25.5545 51.5972 25.5809 50.3955 28.9743 44.1249M28.9743 44.1249C31.9435 38.6382 25.4622 33.4127 22.1875 39.422M22.1875 39.422C19.767 43.8636 19.8382 43.8636 18.5331 45.9538M22.1875 39.422C25.1918 31.9043 16.7563 33.4127 13.7976 38.3769M18.5331 45.9538C15.4007 50.9703 23.357 54.8371 27.2152 48.044M18.5331 45.9538C14.9439 51.7019 8.58943 46.5369 12.132 40.9896M13.7976 38.3769C13.4142 38.9799 12.8755 39.8253 12.132 40.9896M13.7976 38.3769C16.6353 33.6157 10.2087 29.4669 7.17491 33.9352M12.132 40.9896C10.4412 43.0798 8.20006 43.4339 6.26471 41.7734C4.4375 40.2058 3.91544 38.7359 7.17491 33.9352M7.17491 33.9352H0" stroke="white" stroke-width="2"/>
</svg>
