<svg width="83" height="84" viewBox="0 0 83 84" fill="none" xmlns="http://www.w3.org/2000/svg">
<path d="M17.4674 55.0442V50.0265H1V83H17.4674V77.9823M17.4674 55.0442C18.3027 55.0442 20.3313 54.9009 21.7632 54.3274C23.5531 53.6106 28.2069 50.0265 34.6507 55.0442C41.0944 60.0619 43.6003 58.9867 45.7483 58.9867C47.8962 58.9867 52.908 60.0619 55.7719 64.0044C56.0778 64.4256 56.3143 64.8262 56.4878 65.2056M17.4674 55.0442V77.9823M35.7247 67.5885C44.6743 66.8717 47.5382 69.3805 51.476 69.7389C54.9933 70.0591 57.9393 68.3777 56.4878 65.2056M56.4878 65.2056L75.1031 52.177C77.967 50.0265 85.4847 51.1018 80.1149 56.4779C73.3317 63.2691 65.6762 70.8561 62.5736 73.6814C59.3517 76.3097 51.3328 81.4947 45.0323 81.208C37.1566 80.8496 37.8726 80.1726 31.0708 79.4159C25.9158 78.8425 19.8539 78.2212 17.4674 77.9823M43.6003 26.3717C48.19 26.3717 51.7503 26.3717 52.55 26.3717C54.2197 26.3717 55.3431 26.7529 55.6719 27.8053M43.6003 26.3717V24.2212C43.481 23.2655 43.8151 21.354 46.1063 21.354C47.7141 21.354 57.7616 21.354 66.8694 21.354M43.6003 26.3717C41.3883 26.3717 38.9371 26.3717 36.4406 26.3717M55.7719 39.9912C55.7719 40.5351 55.7719 41.0203 55.7719 41.4248C55.7719 44.292 54.1013 45.0088 53.266 45.0088H51.1181V51.1018L44.6743 45.0088C39.1852 45.0088 27.2046 45.0088 23.1951 45.0088C19.1857 45.0088 18.8993 42.3805 19.2573 41.0664V28.8805C19.2573 26.8735 20.9279 26.3717 21.7632 26.3717C25.6175 26.3717 31.1314 26.3717 36.4406 26.3717M55.7719 39.9912H68.6594L74.7451 46.0841V39.9912C74.9838 39.9912 75.8907 39.9912 77.609 39.9912C79.3274 39.9912 79.5183 38.5575 79.399 37.8407C79.399 34.2566 79.399 26.515 79.399 24.2212C79.399 21.9274 77.967 21.354 77.251 21.354C74.4399 21.354 70.7395 21.354 66.8694 21.354M55.7719 39.9912C55.7719 38.2108 55.7719 35.8017 55.7719 33.5398M55.7719 33.5398C55.7719 31.5935 55.7719 29.7561 55.7719 28.5221C55.7719 28.2546 55.7379 28.0165 55.6719 27.8053M55.7719 33.5398H66.1535M55.6719 27.8053H71.8813M66.8694 21.354V16.6947H63.2896L61.4997 13.1106L64.3635 9.88496L59.7097 5.58407L56.8458 8.09292L53.266 6.65929L52.908 2L46.1063 2.35841V6.30088L42.5264 7.73451L39.6625 5.58407L35.0087 9.52655L37.5146 13.1106L36.4406 16.3363H32.1448V23.146L36.4406 23.5044V26.3717M34.2927 32.823C34.2927 31.8673 35.0803 29.9558 38.2306 29.9558C42.1684 29.9558 40.7365 34.615 40.0205 34.9735C39.3045 35.3319 37.5146 34.9735 37.5146 37.1239C37.5146 38.8442 37.5146 38.7965 37.5146 38.5575M37.5146 41.7832H37.8726V41.4248H37.5146" stroke="white" stroke-width="2"/>
</svg>
