<svg width="88" height="105" viewBox="0 0 88 105" fill="none" xmlns="http://www.w3.org/2000/svg">
<path d="M14.1121 46.6862V32.7481C14.1121 32.0265 14.1693 31.3838 14.2731 30.8122M14.1121 46.6862H7.55605C5.6278 46.6862 3.3139 46.8411 3.3139 42.8145C3.3139 38.7879 3.3139 35.4583 3.3139 34.2967M14.1121 46.6862C14.1121 50.7509 18.1 58.5168 24.9103 62.1473M51.9058 46.6862C51.9058 43.8986 51.9058 35.4583 51.9058 31.5865C51.9058 31.3317 51.8919 31.0723 51.861 30.8122M51.9058 46.6862C53.0976 46.6862 55.3155 46.6862 57.3049 46.6862M51.9058 46.6862C51.9058 49.6994 49.3365 58.5749 41.1076 62.3632M51.861 30.8122C51.6102 28.7016 50.2412 26.5533 46.1211 26.5533C41.4933 26.5533 25.9387 26.5533 18.7399 26.5533C17.0924 26.5533 14.8818 27.4578 14.2731 30.8122M51.861 30.8122H58.0762M63.0897 34.6839C63.0897 31.5865 60.2616 30.8122 58.8475 30.8122H58.0762M63.0897 34.6839C63.0897 37.7813 63.0897 41.653 63.0897 43.2017C62.9611 44.3632 62.1641 46.6862 60.0045 46.6862C59.275 46.6862 58.3197 46.6862 57.3049 46.6862M63.0897 34.6839C63.0897 31.9737 63.0897 24.3852 63.0897 15.7125C63.0897 9.51777 55.3767 1 46.1211 1C41.4933 1 29.5381 1 18.7399 1C9.86996 1 3.3139 10.2921 3.3139 18.8099V34.2967M3.3139 34.2967C3.3139 32.7481 4.70224 30.8122 7.1704 30.8122C7.54058 30.8122 7.92936 30.8122 8.32735 30.8122M14.2731 30.8122C13.1348 30.8122 10.583 30.8122 8.32735 30.8122M8.32735 30.8122C8.713 22.9397 14.1892 7.19474 33.009 7.19474C51.8287 7.19474 57.562 22.9397 58.0762 30.8122M57.3049 46.6862V50.558C57.3049 52.1066 56.3022 55.204 52.2915 55.204C48.2807 55.204 41.1076 55.204 38.0224 55.204M38.0224 55.204C37.8939 54.3006 37.0197 52.4938 34.5516 52.4938C32.0834 52.4938 31.4664 54.3006 31.4664 55.204C31.3378 56.2365 31.7749 58.3014 34.5516 58.3014C37.3283 58.3014 38.0224 56.2365 38.0224 55.204ZM33.009 43.976V46.2991M20.6682 36.6198C21.8251 35.5873 24.9103 34.1419 27.9955 36.6198M38.7937 36.6198C39.8221 35.5873 42.5731 34.1419 45.3498 36.6198M67.3318 67.5935H74.6592M63.861 74.1754H77.7444M24.9103 62.1473C27.1818 63.3581 29.7672 64.109 32.6233 64.109C35.9586 64.109 38.7629 63.4426 41.1076 62.3632M24.9103 62.1473V69.9165M24.9103 69.9165L32.6233 79.5958M24.9103 69.9165C5.78206 69.9165 1 83.8547 1 90.8238C1 91.4908 1 93.2413 1 95.857M32.6233 79.5958L41.1076 70.6909M32.6233 79.5958V103.988M32.6233 79.5958C31.5949 79.983 28.6126 80.9896 24.9103 81.9188C21.2081 82.8481 21.0538 80.3702 20.6682 79.2086L17.9686 70.6909M32.6233 79.5958L40.722 81.9188C41.7504 82.306 44.0386 82.3835 44.9641 79.5958C45.8897 76.8082 47.1495 72.3142 47.6637 70.4157M41.1076 70.6909V62.3632M41.1076 70.6909C42.5597 70.3805 45.0039 70.1409 47.6637 70.4157M32.6233 103.988H48.8206M32.6233 103.988H17.1973M65.4036 85.5063C67.3352 86.4588 70.3017 87.2122 76.2018 85.7906C83.9148 83.9321 87 75.3369 87 71.078C86.6143 65.1414 82.1108 53.1816 67.7175 55.9784C58.1436 57.8387 54.7527 65.9064 55.7623 73.421M65.4036 85.5063C64.8101 85.2136 64.3142 84.9021 63.861 84.629L55.7623 85.7906L57.3049 78.8215C56.5368 77.1249 56.0134 75.2901 55.7623 73.421M65.4036 85.5063C65.4036 87.7392 65.4036 92.2097 65.4036 95.857M55.7623 73.421C53.4073 71.5377 50.4197 70.7005 47.6637 70.4157M48.8206 103.988H60.0045C61.8042 103.859 65.4036 102.671 65.4036 98.9544C65.4036 98.0662 65.4036 97.0022 65.4036 95.857M48.8206 103.988V95.857M48.8206 91.5981V95.857M48.8206 95.857C49.1291 95.857 60.0045 95.857 65.4036 95.857M17.1973 91.5981V95.857M17.1973 103.988H6.78475C4.8565 104.117 1 103.291 1 98.9544C1 97.8197 1 96.784 1 95.857M17.1973 103.988V95.857M1 95.857H17.1973M22.9821 41.653C22.9821 41.2658 23.3677 40.4915 24.139 40.4915C24.9103 40.4915 25.296 41.1368 25.296 41.653C25.296 42.1692 24.9103 42.8145 24.139 42.8145C23.3677 42.8145 22.9821 42.0402 22.9821 41.653ZM40.722 41.653C40.722 41.2658 41.1076 40.4915 41.8789 40.4915C42.6502 40.4915 43.0359 41.1368 43.0359 41.653C43.0359 42.1692 42.6502 42.8145 41.8789 42.8145C41.1076 42.8145 40.722 42.0402 40.722 41.653Z" stroke="white" stroke-width="2"/>
</svg>
