<svg width="82" height="70" viewBox="0 0 82 70" fill="none" xmlns="http://www.w3.org/2000/svg">
<path d="M8.97831 33.9998L8.47831 48.9998L5.97831 62.9998C4.97827 68 13.6533 70.5 14.4783 64.9998C15.6783 56.9998 16.3116 52.3331 16.4783 50.9998V39.4998L20.4783 49.9998L21.4783 64.9998C21.4783 68.5 28.9783 69 28.9783 64.4998C28.9783 58.8855 28.145 51.8331 27.9783 48.9998L24.9783 39.4998V31.4998C24.9783 31.4998 36.4566 30.9995 38.4783 30.4998C40.5 30 42.6783 23.0998 37.4783 23.4998C32.2783 23.8998 29.9783 24 29.4783 24.0001L24.9783 20.0001C24.9783 18.3335 23.8783 15.0001 19.4783 15.0001C13.9783 15.0001 13.9783 13.5001 9.97831 17.5001L1.97831 25.5C0.978312 26.1667 -0.121688 28 3.47831 30C7.07831 32 8.64498 33.4998 8.97831 33.9998ZM8.97831 33.9998C10.8189 35.6665 16 37.8367 16 32.5C16 30.5 13 27.5 9.5 26M73.0011 33.9998L73.5011 48.9998L76.0011 62.9998C77.0011 68 68.3261 70.5 67.5011 64.9998C66.3011 56.9998 65.6677 52.3331 65.5011 50.9998V39.4998L61.5011 49.9998L60.5011 64.9998C60.5011 68.5 53.0011 69 53.0011 64.4998C53.0011 58.8855 53.8344 51.8331 54.0011 48.9998L57.0011 39.4998V31.4998C57.0011 31.4998 45.7754 31 43.2754 30.5C40.7754 30 39.3011 23.0998 44.5011 23.4998C49.7011 23.8998 51.2267 24.0002 52.5011 24.0001C53.7754 24 56.2754 23 57.0011 20.0001C57.7267 17.0002 58.1011 15.0001 62.5011 15.0001C68.0011 15.0001 68.0011 13.5001 72.0011 17.5001L80.0011 25.5C81.0011 26.1667 82.1011 28 78.5011 30C74.9011 32 73.7754 33.5 73.0011 33.9998ZM73.0011 33.9998C70.2754 36 65.2754 35.5 66.2754 32.5C68.2754 29.8333 71.7754 27 73.0011 25.8379M10.4783 7C10.4783 11 12.9783 13.5 16.4783 13.5C19.9783 13.5 22.9783 11.5 22.9783 7C22.9783 3.79293 20.8931 1 16.4783 1C12.4783 1 10.4783 3.5 10.4783 7ZM71.5011 7C71.5011 11 69.0011 13.5 65.5011 13.5C62.0011 13.5 59.0011 11.5 59.0011 7C59.0011 3.79293 61.0862 1 65.5011 1C69.5011 1 71.5011 3.5 71.5011 7Z" stroke="white" stroke-width="2"/>
</svg>
