<svg width="130" height="147" viewBox="0 0 130 147" fill="none" xmlns="http://www.w3.org/2000/svg">
<path d="M10.467 67.4166C13.6727 55.9626 24.5668 44.2999 29.8543 42.6777C28.6341 55.9259 35.2773 59.0351 37.7177 67.1462C40.158 75.2574 40.158 80.2592 40.4292 84.9907C40.6461 88.7759 43.2311 91.1642 44.4964 91.8852C44.2795 97.5089 47.4791 99.9963 49.106 100.537C49.5127 112.163 58.4607 110.676 65.3751 110.541C70.9065 110.433 72.7413 103.827 72.9673 100.537C76.8719 98.5904 77.4865 93.958 77.3057 91.8852C80.4511 90.3711 81.4182 86.5679 81.5086 84.8555L82.0509 75.9333C83.6778 75.4827 86.3893 74.987 88.1518 74.3111C89.0851 73.9531 90.1402 73.0493 90.4565 72.5537C92.3546 89.1815 85.3951 99.5907 81.9153 103.781C80.007 106.08 78.1404 107.972 77.5769 115.137C76.7092 126.168 82.4576 140.642 85.4403 146.5H38.9378C38.9378 145.148 38.3955 144.337 37.5821 141.904C35.1231 134.548 28.363 133.522 25.6514 133.793C23.0303 134.153 17.1373 134.928 14.5343 135.144C11.2804 135.415 9.38238 134.198 9.38238 130.007C9.38238 125.682 8.02663 124.87 7.48432 124.059C6.94202 123.248 6.5353 123.248 6.12857 121.626C5.80319 120.328 8.88527 117.57 10.467 116.354C9.92468 116.489 9.92468 116.489 8.97565 116.354C4.08588 115.657 4.68243 112.163 5.45069 111.081C6.39972 109.594 6.80644 106.485 3.1459 105.269C-1.15357 103.839 0.705536 99.1852 2.33246 97.8333C3.41705 96.6167 4.63723 95.4 6.39973 92.5611C9.71138 87.2269 9.92468 82.9629 9.24683 80.2592C8.7045 77.5555 8.84008 73.2296 10.467 67.4166Z" fill="#2F3338"/>
<path d="M58.3251 105.674C54.7459 105.674 53.8512 103.151 53.8512 101.889H68.0866C68.0866 104.052 65.1039 105.674 63.477 105.674H58.3251Z" fill="#2F3338"/>
<path d="M53.58 97.0222C50.3262 96.9141 49.5127 94.5438 49.5127 93.3722H72.425C72.3165 95.8596 69.3971 96.887 67.951 97.0222C64.5164 97.0673 56.8338 97.1304 53.58 97.0222Z" fill="#2F3338"/>
<path d="M49.2416 88.5055C46.2047 88.5055 45.2647 85.892 45.1743 84.5852H76.6278C76.6278 87.4241 74.1875 88.5055 72.8317 88.5055H49.2416Z" fill="#2F3338"/>
<path d="M53.8512 53.3573V79.8537H45.1743C44.7676 75.1673 43.0322 64.6048 39.3446 59.8462C28.8683 46.3277 35.8068 18.0741 60.2232 18.0741C81.373 18.0741 86.9316 35.9184 87.2027 42.4075L71.8827 57.5481L68.6289 71.0666C68.4029 73.3648 68.9271 77.907 72.8317 77.6907C75.3044 77.5537 76.3127 77.4457 76.6278 77.3734V77.2852C76.7604 77.3017 76.8103 77.3316 76.6278 77.3734V79.8537H67.951V53.3573L68.0582 53.3574C72.2777 53.3579 79.5135 53.3588 80.0172 46.3277C80.5595 38.7575 75.6788 35.9184 71.8827 35.9184C68.6289 35.9184 63.3414 37.9732 63.3414 43.4888V48.4907H59.003V43.4888C59.003 41.5964 55.6136 35.9184 50.1906 35.9184C43.4118 35.9184 41.7849 42.5385 41.7849 44.8407C41.7849 47.5445 44.2253 53.3573 48.6993 53.3573H53.8512Z" fill="#2F3338"/>
<path d="M53.8512 43.8945V48.4907H49.3772C47.4791 48.4907 46.5301 46.3277 46.5301 44.8407C46.5301 43.3536 47.3435 41.0556 50.1906 40.9205C52.4683 40.8123 53.58 42.8581 53.8512 43.8945Z" fill="#2F3338"/>
<path d="M67.951 48.4907V43.4888C67.951 42.5427 69.9304 40.9205 71.8827 40.9205C74.3231 40.9205 75.4077 42.5427 75.4077 44.8408C75.4077 46.6794 73.6452 48.4907 72.5606 48.4907H67.951Z" fill="#2F3338"/>
<path d="M63.3414 53.3573H59.003V79.8537H63.3414V53.3573Z" fill="#2F3338"/>
<path d="M73.6452 71.0666L75.8144 62.8205L83.4066 70.3909C81.6441 70.7964 77.5769 72.0131 74.8654 72.689C73.2384 73.0946 73.1029 72.5538 73.6452 71.0666Z" fill="#2F3338"/>
<path d="M88.1518 68.2279L78.2547 58.2242L112.013 24.8334L121.639 34.7019L88.1518 68.2279Z" fill="#2F3338"/>
<path d="M102.387 27.8075L96.8286 31.0519C93.9815 32.539 91.8462 28.7538 94.9305 26.8612C95.518 26.5007 97.3709 25.4012 100.082 23.8871C102.794 22.373 104.692 26.4556 102.387 27.8075Z" fill="#2F3338"/>
<path d="M78.797 13.613L82.7287 7.12412C84.7624 4.82587 87.319 7.79999 86.2537 9.82783C85.7566 10.7741 84.3285 13.3697 82.5932 16.1815C81.1749 18.4796 77.7124 15.5056 78.797 13.613Z" fill="#2F3338"/>
<path d="M124.757 31.0519L115.402 21.5889L115.267 21.4537C115.312 21.3185 116.162 20.3452 119.199 17.5334C121.827 15.1 125.299 16.8574 128.147 20.2371C130.024 22.4652 129.593 25.5543 128.96 26.9963L124.757 31.0519Z" fill="#2F3338"/>
<path d="M63.3414 9.6926V2.93334C63.3414 2.12222 62.8805 0.5 61.0367 0.5C59.1928 0.5 58.6415 2.12222 58.5963 2.93334V9.6926C58.5963 10.9093 59.8436 11.5852 61.0367 11.5852C62.2297 11.5852 63.3414 10.6389 63.3414 9.6926Z" fill="#2F3338"/>
<path d="M42.8695 13.0722L39.7513 7.66482C39.209 6.85371 38.043 6.47519 36.6331 7.12408C35.2231 7.77297 35.5033 9.37717 35.8196 10.0982L39.209 15.7759C39.5705 16.3617 40.7003 17.263 42.3272 16.1815C43.9541 15.1 43.3666 13.658 42.8695 13.0722Z" fill="#2F3338"/>
<path d="M25.1091 30.9167L19.1438 27.4019C18.4659 27.1315 18.1479 25.7821 19.1438 24.2926C19.9573 23.076 21.7198 23.4364 22.5332 24.0222L27.6851 27.1315C28.2274 27.6272 29.0951 28.97 28.2274 30.376C27.3597 31.7819 25.787 31.3223 25.1091 30.9167Z" fill="#2F3338"/>
</svg>
