<svg width="74" height="73" viewBox="0 0 74 73" fill="none" xmlns="http://www.w3.org/2000/svg">
<path d="M32.0406 37.2659C27.947 39.299 24.7618 40.8529 22.1481 42.0597M32.0406 37.2659V30.8962C32.0406 29.7071 30.8802 28.0424 26.2383 28.1783C21.5964 28.3142 22.1481 31.4057 22.1481 33.1044V42.0597M32.0406 37.2659C34.0112 36.2872 35.6778 35.5697 37.082 35.0659M25.1919 62.8297C32.8016 60.9612 48.5155 57.0885 50.8745 57.2244C53.2335 57.3603 55.9159 55.8655 56.9622 55.1011C59.9743 53.3742 67.0046 48.6827 71.801 44.4C75.6058 41.0027 69.6132 35.2275 64.1913 39.2193C63.9949 39.3639 63.4706 39.7622 62.6694 40.259M25.1919 62.8297L16.8214 43.8917M25.1919 62.8297C25.9529 64.9529 25.0968 69.1994 21.8627 70.1336C17.1566 71.493 14.0946 71.7756 13.2068 71.9171C11.4946 72.1901 7.97515 71.9171 6.73857 69.1145L1.88744 54.2517C1.09476 52.1851 0.915742 48.5947 6.64346 46.9478C12.2556 45.3341 14.8238 44.6547 22.1481 42.0597M37.082 35.0659C42.5039 33.1209 44.5965 36.3316 43.5502 37.8604C42.5356 39.6439 39.8405 42.7013 38.3186 44.4C37.0386 45.8286 37.5893 46.5231 38.3186 46.693C40.4112 46.693 44.5226 47.1857 47.5452 47.0571M37.082 35.0659V23.847C36.9552 22.1767 37.7859 18.9041 42.1234 19.1759C46.4609 19.4477 47.5452 21.7238 47.5452 22.8278V47.0571M47.5452 47.0571C48.1768 47.0302 48.7576 46.9686 49.2574 46.863C50.0977 46.6853 51.308 46.223 52.6818 45.6075M52.6818 45.6075V12.7212C52.4598 11.5888 52.891 9.27307 56.3915 9.06924C60.767 8.81445 62.5743 10.2583 62.6694 11.8719C62.7455 13.1628 62.7011 31.3345 62.6694 40.259M52.6818 45.6075C56.0419 44.1018 60.3795 41.6788 62.6694 40.259M1.69718 29.6222L20.1505 13.1459C21.1018 12.2116 22.814 11.2773 24.1456 11.8718C25.7932 12.6074 27.5066 13.4573 27.9505 13.6554C28.3627 13.8819 29.0919 14.165 30.2333 13.1459C31.3748 12.1267 36.0991 7.56881 38.3186 5.41726H35.2747C31.8504 5.58712 31.7553 1.00092 35.6552 1.00092C40.8297 1.00092 43.5185 1.00092 44.216 1.00092C45.6428 0.972607 47.5452 1.58713 47.5452 4.65289C47.5452 7.71027 47.5452 10.7677 47.5452 12.0417C47.5452 13.5704 43.4762 15.5233 42.8844 13.1458C42.3137 10.8527 42.1234 9.40887 42.1234 8.64459L32.0406 17.4773C31.1846 18.1566 29.8529 20.3648 26.9041 18.5814C24.7159 17.258 24.6213 17.2224 23.67 16.628L5.21662 32.6797C2.64843 35.0659 -0.395465 31.4057 1.69718 29.6222ZM11.9702 65.3775C11.4368 64.5838 11.0053 61.8877 13.9677 61.0461C16.0604 60.4516 17.7963 61.8105 18.153 62.8297C18.6286 64.1885 18.3433 66.1419 16.4409 66.9063C14.5385 67.6706 12.8263 66.6515 11.9702 65.3775Z" stroke="white" stroke-width="2"/>
</svg>
