<svg width="131" height="47" viewBox="0 0 131 47" fill="none" xmlns="http://www.w3.org/2000/svg">
<path d="M0 0.382812V8.19343L6.76714 4.28812L0 0.382812Z" fill="#FFCB00"/>
<path d="M11.127 17.3001L18.6742 21.66L32.6166 13.6066V30.5089L20.0793 37.7462L7.53683 30.5089V16.0293L27.6833 4.39606L20.0741 0L0 11.6746V34.8585L20.0793 46.4505L40.1534 34.8585V9.25703V8.19289V0.387432L11.127 17.3001Z" fill="#FFCB00"/>
<path d="M47.6385 5.95703H71.8349V12.3057H54.9946V19.8116H69.5568V26.1551H54.9946V34.1465H71.9796V40.4953H47.6385V5.95703Z" fill="white"/>
<path d="M85.307 12.2688H75.6729V6.02344H102.338V12.2688H92.7043V40.5565H85.307V12.2688Z" fill="white"/>
<path d="M103.511 28.8676V18.1177C103.511 9.78529 109.917 5.37891 117.366 5.37891C123.864 5.37891 130.694 8.91228 130.694 16.7436V18.1022H123.72V17.4409C123.72 13.4168 120.259 11.7586 117.412 11.7586C114.313 11.7586 110.862 13.4581 110.862 17.8645V28.63C110.862 32.4526 113.9 34.6842 117.578 34.6842C120.45 34.6842 123.72 33.0415 123.72 28.9657V28.3355H130.694V29.6941C130.694 37.5409 124.102 41.0588 117.552 41.0588C110.155 41.0588 103.511 37.0398 103.511 28.8521" fill="white"/>
</svg>
