<svg width="90" height="116" viewBox="0 0 90 116" fill="none" xmlns="http://www.w3.org/2000/svg">
<circle cx="45" cy="71" r="45" fill="#096BB4"/>
<circle cx="44.5" cy="22.5" r="22.5" fill="#096BB4"/>
<path d="M16.1378 77V63.9091H21.3793C22.3423 63.9091 23.1456 64.0518 23.7891 64.3374C24.4325 64.6229 24.9162 65.0192 25.2401 65.5263C25.5639 66.0291 25.7259 66.6087 25.7259 67.2649C25.7259 67.7763 25.6236 68.2259 25.419 68.6136C25.2145 68.9972 24.9332 69.3125 24.5753 69.5597C24.2216 69.8026 23.8168 69.9751 23.3608 70.0774V70.2053C23.8594 70.2266 24.326 70.3672 24.7607 70.6271C25.1996 70.8871 25.5554 71.2514 25.8281 71.7202C26.1009 72.1847 26.2372 72.7386 26.2372 73.3821C26.2372 74.0767 26.0646 74.6967 25.7195 75.2422C25.3786 75.7834 24.8736 76.2116 24.2045 76.527C23.5355 76.8423 22.7109 77 21.7308 77H16.1378ZM18.9055 74.7372H21.1619C21.9332 74.7372 22.4957 74.5902 22.8494 74.2962C23.2031 73.9979 23.38 73.6016 23.38 73.1072C23.38 72.745 23.2926 72.4254 23.1179 72.1484C22.9432 71.8714 22.6939 71.6541 22.37 71.4964C22.0504 71.3388 21.669 71.2599 21.2259 71.2599H18.9055V74.7372ZM18.9055 69.3871H20.9574C21.3366 69.3871 21.6733 69.321 21.9673 69.1889C22.2656 69.0526 22.5 68.8608 22.6705 68.6136C22.8452 68.3665 22.9325 68.0703 22.9325 67.7251C22.9325 67.2521 22.7642 66.8707 22.4276 66.581C22.0952 66.2912 21.6222 66.1463 21.0085 66.1463H18.9055V69.3871ZM28.0382 77V63.9091H33.2797C34.2427 63.9091 35.046 64.0518 35.6895 64.3374C36.3329 64.6229 36.8166 65.0192 37.1404 65.5263C37.4643 66.0291 37.6262 66.6087 37.6262 67.2649C37.6262 67.7763 37.524 68.2259 37.3194 68.6136C37.1149 68.9972 36.8336 69.3125 36.4757 69.5597C36.122 69.8026 35.7172 69.9751 35.2612 70.0774V70.2053C35.7598 70.2266 36.2264 70.3672 36.661 70.6271C37.1 70.8871 37.4558 71.2514 37.7285 71.7202C38.0012 72.1847 38.1376 72.7386 38.1376 73.3821C38.1376 74.0767 37.965 74.6967 37.6199 75.2422C37.2789 75.7834 36.774 76.2116 36.1049 76.527C35.4359 76.8423 34.6113 77 33.6312 77H28.0382ZM30.8059 74.7372H33.0623C33.8336 74.7372 34.3961 74.5902 34.7498 74.2962C35.1035 73.9979 35.2804 73.6016 35.2804 73.1072C35.2804 72.745 35.193 72.4254 35.0183 72.1484C34.8436 71.8714 34.5943 71.6541 34.2704 71.4964C33.9508 71.3388 33.5694 71.2599 33.1262 71.2599H30.8059V74.7372ZM30.8059 69.3871H32.8578C33.237 69.3871 33.5737 69.321 33.8677 69.1889C34.166 69.0526 34.4004 68.8608 34.5708 68.6136C34.7456 68.3665 34.8329 68.0703 34.8329 67.7251C34.8329 67.2521 34.6646 66.8707 34.3279 66.581C33.9956 66.2912 33.5225 66.1463 32.9089 66.1463H30.8059V69.3871ZM39.9386 77V63.9091H48.7596V66.1911H42.7063V69.3104H48.3058V71.5923H42.7063V74.718H48.7852V77H39.9386ZM50.96 77V63.9091H56.1248C57.1177 63.9091 57.9636 64.0987 58.6625 64.478C59.3613 64.853 59.894 65.375 60.2605 66.044C60.6312 66.7088 60.8166 67.4759 60.8166 68.3452C60.8166 69.2145 60.6291 69.9815 60.2541 70.6463C59.8791 71.3111 59.3358 71.8288 58.6241 72.1996C57.9167 72.5703 57.0602 72.7557 56.0545 72.7557H52.7626V70.5376H55.6071C56.1397 70.5376 56.5787 70.446 56.9238 70.2628C57.2733 70.0753 57.5332 69.8175 57.7037 69.4893C57.8784 69.157 57.9657 68.7756 57.9657 68.3452C57.9657 67.9105 57.8784 67.5312 57.7037 67.2074C57.5332 66.8793 57.2733 66.6257 56.9238 66.4467C56.5744 66.2635 56.1312 66.1719 55.5943 66.1719H53.7278V77H50.96ZM65.2095 63.9091L67.8494 68.3707H67.9517L70.6044 63.9091H73.7301L69.7351 70.4545L73.8196 77H70.6364L67.9517 72.532H67.8494L65.1648 77H61.9943L66.0916 70.4545L62.071 63.9091H65.2095Z" fill="white"/>
<path d="M45 18L51.9282 25.5H38.0718L45 18Z" fill="white"/>
<path d="M45 35L51.9282 42.5H38.0718L45 35Z" fill="white"/>
</svg>
