<svg width="98" height="71" viewBox="0 0 98 71" fill="none" xmlns="http://www.w3.org/2000/svg">
<path d="M96.5 21.3426V32.5632V42.6028V52.9376V60.0244C94.6708 67.9708 71.4621 72.1061 59.1576 66.2309C59.1576 66.2309 56.9944 68.5876 55.5144 68.5876H5.87653C3.48568 68.5876 1.8918 66.2253 1.8918 63.2725V55.0046V45.811C1.88195 45.383 1.8918 44.9483 1.8918 44.5221L1.58186 35.6786C1.55993 35.3541 1.55177 35.0494 1.55029 34.7778C1.51234 27.8387 1.45921 12.7498 1.55029 7.90717C1.64137 3.06456 4.4724 1.95233 5.87653 2.00154C22.1568 2.00155 55.6283 2.29687 58.9299 2.29686C62.6452 2.29685 63.6736 6.13548 63.8254 7.90717V12.962C75.7219 9.84109 92.8911 12.87 96.5 21.3426Z" fill="#2F3338"/>
<path d="M52.5545 21.3426C54.1484 34.3349 95.9308 31.9726 96.5 21.3426M52.5545 21.3426C53.0073 19.9674 53.7888 18.7441 54.8313 17.6704M52.5545 21.3426C52.5545 21.3426 52.5545 25.4634 52.5545 31.0868M96.5 21.3426C96.5 21.3426 96.5 26.2239 96.5 32.5632M96.5 21.3426C92.8911 12.87 75.7219 9.84109 63.8254 12.962M52.5545 32.5632C57.4499 41.8646 92.5152 43.0457 96.5 32.5632M52.5545 32.5632C52.5545 35.012 52.5545 38.4222 52.5545 41.1264M52.5545 32.5632C52.5545 32.0611 52.5545 31.5684 52.5545 31.0868M96.5 32.5632C96.5 35.6918 96.5 39.1755 96.5 42.6028M52.5545 42.6028C59.2714 50.8706 90.6936 52.347 96.5 42.6028M52.5545 42.6028C52.5545 41.8647 52.5545 41.8635 52.5545 41.1264M52.5545 42.6028C52.5545 45.0796 52.5545 47.5398 52.5545 49.8372M96.5 42.6028C96.5 46.2825 96.5 49.8972 96.5 52.9376M52.5545 52.9376C60.6376 62.3866 90.6936 60.0244 96.5 52.9376M52.5545 52.9376C52.5545 51.9497 52.5545 50.9112 52.5545 49.8372M52.5545 52.9376C52.5545 55.4692 52.5545 57.6692 52.5545 59.2862M96.5 52.9376C96.5 56.1289 96.5 58.6874 96.5 60.0244C94.6708 67.9708 71.4621 72.1061 59.1576 66.2309M63.8254 12.962V7.90717C63.6736 6.13548 62.6452 2.29685 58.9299 2.29686C55.6283 2.29687 22.1568 2.00155 5.87653 2.00154C4.4724 1.95233 1.64137 3.06456 1.55029 7.90717C1.45921 12.7498 1.51234 27.8387 1.55029 34.7778M63.8254 12.962C60.1308 13.9313 56.9447 15.4937 54.8313 17.6704M1.55029 34.7778C1.56159 36.8448 1.95911 40.8311 5.87653 40.8311C9.86119 40.8311 38.4371 41.1264 52.5545 41.1264M1.55029 34.7778L1.8918 44.5221M1.8918 44.5221C1.8918 47.032 1.55029 49.8372 6.90113 49.8372C11.9105 49.8372 39.4239 49.8372 52.5545 49.8372M1.8918 44.5221C1.8918 44.5221 1.8918 51.4612 1.8918 55.0046M1.8918 55.0046C1.8918 58.548 3.71337 59.2862 6.67343 59.2862C9.63349 59.2862 52.5545 59.2862 52.5545 59.2862M1.8918 55.0046C1.8918 55.0046 1.8918 60.3197 1.8918 63.2725C1.8918 66.2253 3.48568 68.5876 5.87653 68.5876C8.26738 68.5876 54.0344 68.5876 55.5144 68.5876C56.9944 68.5876 59.1576 66.2309 59.1576 66.2309M52.5545 59.2862C52.5545 59.5479 52.5545 59.7943 52.5545 60.0244C53.786 62.7539 56.145 64.7925 59.1576 66.2309M19.3106 11.4506H13.1628C13.011 13.2223 11.9105 16.8247 8.7227 17.0609V24.7382C9.89914 25.1319 12.4114 27.2481 12.5936 30.7915H19.3106M46.065 11.8935H51.9851C52.5923 13.7762 54.0116 17.5674 54.8313 17.6704M46.065 31.0868H52.5545M25.1169 21.3426C25.1169 17.0609 26.8246 11.8935 32.2893 11.8935C37.7541 11.8935 39.6895 16.0274 39.6895 21.0472C39.6895 26.067 37.8679 30.7915 32.2893 30.7915C28.0997 30.7915 25.1169 26.5099 25.1169 21.3426Z" stroke="white" stroke-width="2.5"/>
</svg>
