<svg width="138" height="77" viewBox="0 0 138 77" fill="none" xmlns="http://www.w3.org/2000/svg">
<path d="M78.0068 8.75C78.0068 6.42936 77.0572 4.20376 75.3669 2.56282C73.6766 0.921872 71.3841 0 68.9937 0C66.6033 0 64.3108 0.921872 62.6205 2.56282C60.9302 4.20376 59.9807 6.42936 59.9807 8.75C59.9807 11.0706 60.9302 13.2962 62.6205 14.9372C64.3108 16.5781 66.6033 17.5 68.9937 17.5C71.3841 17.5 73.6766 16.5781 75.3669 14.9372C77.0572 13.2962 78.0068 11.0706 78.0068 8.75ZM29.3363 38.5C31.7267 38.5 34.0192 37.5781 35.7095 35.9372C37.3997 34.2962 38.3493 32.0706 38.3493 29.75C38.3493 27.4294 37.3997 25.2038 35.7095 23.5628C34.0192 21.9219 31.7267 21 29.3363 21C26.9459 21 24.6533 21.9219 22.9631 23.5628C21.2728 25.2038 20.3232 27.4294 20.3232 29.75C20.3232 32.0706 21.2728 34.2962 22.9631 35.9372C24.6533 37.5781 26.9459 38.5 29.3363 38.5ZM108.651 38.5C111.042 38.5 113.334 37.5781 115.024 35.9372C116.715 34.2962 117.664 32.0706 117.664 29.75C117.664 27.4294 116.715 25.2038 115.024 23.5628C113.334 21.9219 111.042 21 108.651 21C106.261 21 103.968 21.9219 102.278 23.5628C100.588 25.2038 99.6381 27.4294 99.6381 29.75C99.6381 32.0706 100.588 34.2962 102.278 35.9372C103.968 37.5781 106.261 38.5 108.651 38.5ZM41.9545 61.5781L48.0158 72.4938C49.4354 75.0531 52.7026 75.9938 55.3389 74.6375C57.9753 73.2812 58.9442 70.0875 57.5471 67.5281L49.3678 52.7625C49.7508 52.3906 50.0888 51.975 50.3367 51.4937L56.3754 40.5781V52.5C56.3754 56.3719 59.5976 59.5 63.5859 59.5H74.4016C78.3898 59.5 81.612 56.3719 81.612 52.5V40.5781L87.6733 51.4937C87.9437 51.975 88.2591 52.3906 88.6422 52.7625L80.4628 67.5281C79.0433 70.0875 80.0347 73.2594 82.671 74.6375C85.3074 76.0156 88.5746 75.0531 89.9941 72.4938L96.0329 61.5781V70C96.0329 73.8719 99.2551 77 103.243 77H114.059C118.047 77 121.269 73.8719 121.269 70V61.5781L127.331 72.4938C128.75 75.0531 132.018 75.9938 134.654 74.6375C137.29 73.2812 138.259 70.0875 136.862 67.5281L128.322 52.15C124.875 45.9156 118.16 42.0219 110.859 42.0219H106.443C102.77 42.0219 99.2551 43.0062 96.2132 44.7781L88.6422 31.15C85.1947 24.9156 78.48 21.0219 71.1794 21.0219H66.7855C59.4849 21.0219 52.7927 24.9156 49.3227 31.15L41.7518 44.7781C38.7098 43.0062 35.1948 42.0219 31.5219 42.0219H27.1281C19.8275 42.0219 13.1353 45.9156 9.66526 52.15L1.14792 67.5062C-0.271634 70.0656 0.719802 73.2375 3.35612 74.6156C5.99244 75.9938 9.25968 75.0312 10.6792 72.4719L16.718 61.5781V70C16.718 73.8719 19.9401 77 23.9284 77H34.7441C38.7324 77 41.9545 73.8719 41.9545 70V61.5781Z" fill="#2F3338"/>
</svg>
