<svg width="120" height="94" viewBox="0 0 120 94" fill="none" xmlns="http://www.w3.org/2000/svg">
<path fill-rule="evenodd" clip-rule="evenodd" d="M32.1407 39.7486H37.8885L39.1788 36.8395L32.1407 30.3231C29.0909 30.7885 27.6557 30.2329 26.3929 27.414C25.9238 26.3667 26.2757 25.203 26.6275 24.7376L25.2199 23.3413C24.6334 22.7594 24.1173 21.4795 25.3372 20.5486C26.5571 19.6176 27.4877 20.0831 27.8006 20.4322L29.4428 22.1776L41.5249 15.8939C39.0224 15.4285 34.1583 13.1245 34.7214 7.63207C35.2844 2.13969 39.4917 0.301137 41.5249 0.0684095C44.4183 -0.164319 50.2756 1.02259 50.5571 7.63207C50.7009 11.0066 49.1496 12.403 47.8592 14.1486C49.3841 14.4977 53.2249 16.2078 52.5513 19.9667C51.6129 25.203 48.0938 34.8612 46.6862 39.7486H70.0293L71.085 36.4904L64.2815 29.8577C63.2649 30.3619 60.8797 30.9748 59.4721 29.3922C57.7126 27.414 57.5953 26.4831 58.5337 24.5049L57.2434 23.2249C56.9306 22.7983 56.563 21.6424 57.5953 20.4322C58.6275 19.222 59.7458 19.928 60.1759 20.4322L61.8181 22.0613L73.4311 15.894C71.3196 15.5449 66.9794 13.5202 66.5102 8.21399C66.041 2.90779 70.9286 0.572686 73.4311 0.0684095C76.129 -0.28065 81.736 0.533962 82.5806 6.58489C83.4252 12.6358 81.1339 14.1486 79.8827 14.1486C81.2512 14.3812 84.0821 15.568 84.4575 18.4539C84.8328 21.3398 84.6139 22.5267 84.4575 22.7594L78.5923 39.7486H87.6246L101.114 30.5558C102.757 29.8188 106.745 29.1129 109.56 32.1849C113.079 36.0249 112.727 39.7485 109.56 43.5885C107.026 46.6606 101.701 49.6007 99.3548 50.6867L95.6011 46.8467L87.2727 45.334L82.8152 48.9413C82.737 50.5316 82.7683 53.7355 83.519 53.8286C84.2698 53.9217 75.7771 54.9534 71.4369 55.4577L62.9912 46.8467L56.7742 45.6831H54.1935L50.4398 49.2904L50.7917 53.4795L51.6129 54.5268C52.3167 55.574 53.0674 57.6686 50.4398 57.6686H16.1876C15.5229 57.6686 14.1701 57.2497 14.0762 55.574C13.9824 53.8984 15.4447 53.7122 16.1876 53.8286H24.7507L10.3225 43.5885C8.44575 42.0758 5.88138 37.4213 9.61872 33.1158C12.5278 29.7645 16.1876 29.043 19.4721 30.9049L32.1407 39.7486ZM40.3519 32.7667L35.7771 28.2285L43.4018 23.8067L40.3519 32.7667ZM75.3079 23.923L68.1525 28.1121L72.61 32.4176L75.3079 23.923Z" fill="#2F3338"/>
<path d="M54.1935 50.6867L55.2493 55.9231L63.3431 63.9522C63.7732 64.4177 64.9619 65.0693 66.2757 63.9522C67.5894 62.8352 68.7781 61.625 69.2082 61.1595C69.5992 60.7328 70.0059 59.5071 68.5044 58.0177C67.0029 56.5282 62.8739 52.5098 60.9971 50.6867L55.7185 49.5231L54.1935 50.6867Z" fill="#2F3338"/>
<path d="M87.7419 56.1559L95.3666 63.6032C95.4358 63.6633 95.5156 63.7274 95.604 63.7929C96.3644 63.685 97.2216 63.8145 98.0863 64.4031C98.2018 64.3496 98.3125 64.2778 98.4164 64.185C99.3548 63.3472 101.075 61.7413 101.818 61.0431C102.131 60.6553 102.475 59.577 101.349 58.3668C100.223 57.1566 95.7967 52.7425 93.7243 50.6867L88.3284 49.5231L86.6862 50.6867L87.7419 56.1559Z" fill="#2F3338"/>
<path d="M1.52493 53.8286C1.01662 53.9449 0 54.4569 0 55.574C0 56.9704 0.938416 57.6686 1.52493 57.6686H8.56305C9.14956 57.6686 9.97067 56.598 9.97067 55.574C9.97067 54.55 8.87586 53.9837 8.32845 53.8286H1.52493Z" fill="#2F3338"/>
<path d="M105.806 53.7122C105.181 53.8286 103.953 54.4104 104.047 55.8068C104.141 57.2031 105.259 57.6298 105.806 57.6686H118.475C118.983 57.5522 120 57.017 120 55.8068C120 54.5966 118.983 53.9062 118.475 53.7122H105.806Z" fill="#2F3338"/>
<path d="M5.39589 66.3959C4.45748 66.3959 3.98827 67.4432 3.98827 68.025C3.98827 69.1886 4.45748 69.9566 6.33431 70.2359C8.21114 70.5152 10.9482 68.7232 12.0821 67.7923C17.0557 72.8192 22.131 69.8868 24.0469 67.7923C28.5513 72.3537 33.9785 69.6929 36.129 67.7923C40.1642 72.0745 45.7869 69.5765 48.0938 67.7923C52.8798 72.2606 58.0645 69.6541 60.0587 67.7923C65.0323 72.2606 70.1857 69.4989 72.1408 67.5595C77.5836 72.6796 82.4633 69.6929 84.2229 67.5595C88.7273 72.4934 93.998 69.6153 96.0704 67.5595C101.232 72.2141 106.432 69.7317 108.27 67.7923C109.638 69.5377 113.548 70.9341 114.956 70.3523C117.22 69.4165 116.364 66.8613 115.308 66.6286C113.951 66.3296 113.666 67.4432 111.32 65.3486C108.974 63.2541 106.276 63.6032 105.103 65.2323C103.93 66.8613 101.114 66.8613 98.4164 64.6504C98.3064 64.5602 98.1963 64.478 98.0863 64.4031C97.2747 64.7792 96.2259 64.2537 95.604 63.7929C94.5642 63.9405 93.7052 64.5318 93.2551 64.9995C92.4731 65.9692 90.1818 67.3268 87.2727 64.9995C84.3636 62.6722 82.2287 63.8359 80.9384 64.9995C79.1758 66.5891 77.0909 67.2337 74.8387 64.9995C72.5865 62.7653 70.1466 64.0686 69.2082 64.9995C68.1134 65.9304 65.3138 67.2337 62.8739 64.9995C60.434 62.7653 58.1818 64.0686 57.3607 64.9995C56.1877 65.9304 53.2317 67.2337 50.7918 64.9995C48.3519 62.7653 45.9971 64.185 45.2786 64.9995C44.5601 65.8141 41.9941 68.025 39.2962 65.3486C36.5982 62.6722 33.9987 63.9522 32.7273 65.3486C31.4559 66.745 28.9736 66.8846 27.0968 65.1159C24.7507 62.905 22.7566 63.6032 20.6452 65.3486C18.5337 67.0941 16.5396 66.6286 14.4282 64.6504C12.43 62.7784 9.85337 64.0686 9.26686 64.8832C8.09384 66.5123 6.56891 66.3959 5.39589 66.3959Z" fill="#2F3338"/>
<path d="M5.39589 78.1487C4.45748 78.1487 3.98827 79.1959 3.98827 79.7777C3.98827 80.9414 4.45748 81.7094 6.33431 81.9887C8.21114 82.2679 10.9482 80.4759 12.0821 79.545C17.0557 84.5719 22.131 81.6396 24.0469 79.545C28.5513 84.1065 33.9785 81.4456 36.129 79.545C40.1642 83.8272 45.7869 81.3293 48.0938 79.545C52.8798 84.0134 58.0645 81.4068 60.0587 79.545C65.0323 84.0134 70.1857 81.2517 72.1408 79.3123C77.5836 84.4323 82.4633 81.4456 84.2229 79.3123C88.7273 84.2461 93.998 81.3681 96.0704 79.3123C101.232 83.9669 106.432 81.4844 108.27 79.545C109.638 81.2905 113.548 82.6869 114.956 82.105C117.22 81.1693 116.364 78.6141 115.308 78.3814C113.951 78.0823 113.666 79.1959 111.32 77.1014C108.974 75.0068 106.276 75.3559 105.103 76.985C103.93 78.6141 101.114 78.6141 98.4164 76.4032C98.3064 76.313 98.1963 76.2307 98.0863 76.1559C97.2747 76.532 96.2259 76.0064 95.604 75.5457C94.5642 75.6932 93.7052 76.2845 93.2551 76.7523C92.4731 77.722 90.1818 79.0796 87.2727 76.7523C84.3636 74.425 82.2287 75.5886 80.9384 76.7523C79.1758 78.3418 77.0909 78.9865 74.8387 76.7523C72.5865 74.5181 70.1466 75.8214 69.2082 76.7523C68.1134 77.6832 65.3138 78.9865 62.8739 76.7523C60.434 74.5181 58.1818 75.8214 57.3607 76.7523C56.1877 77.6832 53.2317 78.9865 50.7918 76.7523C48.3519 74.5181 45.9971 75.9377 45.2786 76.7523C44.5601 77.5668 41.9941 79.7777 39.2962 77.1014C36.5982 74.425 33.9987 75.705 32.7273 77.1014C31.4559 78.4977 28.9736 78.6374 27.0968 76.8687C24.7507 74.6577 22.7566 75.3559 20.6452 77.1014C18.5337 78.8468 16.5396 78.3814 14.4282 76.4032C12.43 74.5311 9.85337 75.8214 9.26686 76.6359C8.09384 78.265 6.56891 78.1487 5.39589 78.1487Z" fill="#2F3338"/>
<path d="M5.04399 89.828C4.10557 89.828 3.63636 90.8753 3.63636 91.4571C3.63636 92.6207 4.10557 93.3887 5.9824 93.668C7.85924 93.9473 10.5963 92.1553 11.7302 91.2244C16.7038 96.2513 21.7791 93.3189 23.695 91.2244C28.1994 95.7858 33.6266 93.125 35.7771 91.2244C39.8123 95.5066 45.435 93.0086 47.7419 91.2244C52.5279 95.6927 57.7126 93.0862 59.7067 91.2244C64.6804 95.6927 69.8338 92.931 71.7889 90.9916C77.2317 96.1117 82.1114 93.125 83.871 90.9916C88.3754 95.9255 93.6461 93.0474 95.7185 90.9916C100.88 95.6462 106.08 93.1638 107.918 91.2244C109.286 92.9698 113.196 94.3662 114.604 93.7844C116.868 92.8486 116.012 90.2935 114.956 90.0607C113.599 89.7617 113.314 90.8753 110.968 88.7807C108.622 86.6862 105.924 87.0353 104.751 88.6644C103.578 90.2935 100.762 90.2935 98.0645 88.0825C97.9545 87.9924 97.8444 87.9101 97.7344 87.8352C96.9228 88.2113 95.874 87.6858 95.2521 87.225C94.2123 87.3726 93.3533 87.9639 92.9032 88.4316C92.1212 89.4013 89.8299 90.7589 86.9208 88.4316C84.0117 86.1044 81.8768 87.268 80.5865 88.4316C78.8239 90.0212 76.739 90.6658 74.4868 88.4316C72.2346 86.1974 69.7947 87.5007 68.8563 88.4316C67.7615 89.3625 64.9619 90.6658 62.522 88.4316C60.0821 86.1974 57.8299 87.5007 57.0088 88.4316C55.8358 89.3625 52.8798 90.6658 50.4399 88.4316C48 86.1974 45.6452 87.6171 44.9267 88.4316C44.2082 89.2462 41.6422 91.4571 38.9443 88.7807C36.2463 86.1044 33.6468 87.3844 32.3754 88.7807C31.104 90.1771 28.6217 90.3167 26.7449 88.548C24.3988 86.3371 22.4047 87.0353 20.2933 88.7807C18.1818 90.5262 16.1877 90.0607 14.0762 88.0825C12.0781 86.2105 9.50147 87.5007 8.91496 88.3153C7.74194 89.9444 6.21701 89.828 5.04399 89.828Z" fill="#2F3338"/>
</svg>
